<svg width="993" height="364" xmlns="http://www.w3.org/2000/svg">
 <!-- Created with Method Draw - http://github.com/duopixel/Method-Draw/ -->

 <g>
  <title>background</title>
  <rect fill="none" id="canvas_background" height="366" width="995" y="-1" x="-1"/>
  <g display="none" overflow="visible" y="0" x="0" height="100%" width="100%" id="canvasGrid">
   <rect fill="url(#gridpattern)" stroke-width="0" y="2" x="2" height="400" width="580"/>
  </g>
 </g>
 <g>
  <title>Layer 1</title>
  <g stroke="null" id="svg_48">
   <g stroke="null" transform="matrix(1.020344157101695,0,0,1.5328604683492846,-4517.687849899379,-7764.210416435801) " id="svg_6">
    <path stroke="null" id="svg_7" d="m5394.212579,5170.437633c0,9.333 0,18.667 0,28c-7.133,44.306 -31.133,75.806 -72,94.5c-6.786,2.188 -13.452,4.355 -20,6.5c-258.667,0 -517.333,0 -776,0c-56.8857,-16.882 -87.55239,-54.882 -92,-114c0,-2 0,-4 0,-6c7.74397,-62.5805 42.744,-99.4138 105,-110.5c251.351,-0.99102 502.684,-0.65768 754,1c56.841,10.3409 90.507,43.8409 101,100.5z" fill="#6da3ec"/>
   </g>
   <g stroke="null" transform="matrix(1.020344157101695,0,0,1.5328604683492846,-4517.687849899379,-7764.210416435801) " id="svg_8">
    <path stroke="null" id="svg_9" d="m4706.212579,5105.437633c13.655,-1.5102 19.822,4.4898 18.5,18c-4.335,11.9082 -12.835,16.7416 -25.5,14.5c-8.695,-6.3507 -10.195,-14.184 -4.5,-23.5c3.183,-4.0378 7.016,-7.0378 11.5,-9z" fill="#fdfdfe"/>
   </g>
   <g stroke="null" transform="matrix(1.020344157101695,0,0,1.5328604683492846,-4517.687849899379,-7764.210416435801) " id="svg_10">
    <path stroke="null" id="svg_11" d="m4954.212579,5107.437633c0.597,0.2352 0.93,0.7352 1,1.5c-9.988,51.1047 -19.654,102.271 -29,153.5c-7.333,0 -14.667,0 -22,0c0.21,-4.698 0.376,-9.364 0.5,-14c-17.233,17.623 -36.733,20.79 -58.5,9.5c-10.519,-12.221 -14.352,-26.388 -11.5,-42.5c2.822,-18.14 10.322,-33.973 22.5,-47.5c12.299,-11.8764 26.965,-16.5431 44,-14c7.119,2.3146 12.952,6.4812 17.5,12.5c3.787,-16.1615 7.12,-32.4948 10,-49c8.464,-3.6502 16.964,-6.9835 25.5,-10z" fill="#fdfefe"/>
   </g>
   <g stroke="null" transform="matrix(1.020344157101695,0,0,1.5328604683492846,-4517.687849899379,-7764.210416435801) " id="svg_12">
    <path stroke="null" id="svg_13" d="m4998.212579,5154.437633c6.565,0.3511 12.899,1.3511 19,3c-1.128,5.6424 -2.128,11.309 -3,17c-6.667,0 -13.333,0 -20,0c-5.923,29.281 -11.59,58.615 -17,88c-8.333,0 -16.667,0 -25,0c5.079,-28.393 10.412,-56.727 16,-85c0.904,-0.709 1.237,-1.709 1,-3c-5.333,0 -10.667,0 -16,0c0.871,-6.354 1.871,-12.6873 3,-19c5.667,0 11.333,0 17,0c5.055,-31.8857 23.721,-47.0523 56,-45.5c23.599,1.9619 33.432,14.7952 29.5,38.5c-6.835,30.504 -12.502,61.171 -17,92c0.833,0.833 1.667,1.667 2.5,2.5c4.348,0.415 8.681,0.249 13,-0.5c0,6 0,12 0,18c-9.146,2.725 -18.479,3.558 -28,2.5c-11.525,-5.156 -15.692,-13.99 -12.5,-26.5c5.539,-28.694 11.205,-57.36 17,-86c3.58,-16.4205 -2.92,-22.9205 -19.5,-19.5c-7.474,2.1403 -12.307,6.9736 -14.5,14.5c-0.502,3.0131 -1.002,6.0131 -1.5,9z" fill="#fdfefe"/>
   </g>
   <g stroke="null" transform="matrix(1.020344157101695,0,0,1.5328604683492846,-4517.687849899379,-7764.210416435801) " id="svg_14">
    <path stroke="null" id="svg_15" d="m4642.212579,5115.437633c8.818,-0.9933 17.818,-1.3266 27,-1c0.237,1.291 -0.096,2.291 -1,3c-8.269,-1.9698 -16.935,-2.6364 -26,-2z" fill="#d7e5f9"/>
   </g>
   <g stroke="null" transform="matrix(1.020344157101695,0,0,1.5328604683492846,-4517.687849899379,-7764.210416435801) " id="svg_16">
    <path stroke="null" id="svg_17" d="m4642.212579,5115.437633c9.065,-0.6364 17.731,0.0302 26,2c-9.305,47.6304 -18.471,95.297 -27.5,143c-8.566,1.954 -17.399,2.62 -26.5,2c6.775,-32.939 12.941,-65.939 18.5,-99c-14.043,24.034 -28.876,47.534 -44.5,70.5c-5.991,0.499 -11.991,0.666 -18,0.5c-5.983,-23.932 -11.65,-47.932 -17,-72c-6.792,33.293 -13.459,66.626 -20,100c-8.6667,0 -17.3333,0 -26,0c9.4336,-49.002 18.9336,-98.0017 28.5,-147c9,-1.3333 18,-1.3333 27,0c8.068,26.3694 16.234,52.703 24.5,79c18.109,-26.5743 36.443,-52.9076 55,-79z" fill="#fdfefe"/>
   </g>
   <g stroke="null" transform="matrix(1.020344157101695,0,0,1.5328604683492846,-4517.687849899379,-7764.210416435801) " id="svg_18">
    <path stroke="null" id="svg_19" d="m4739.212579,5155.437633c7.333,0 14.667,0 22,0c0,1.3333 0,2.6667 0,4c-0.876,3.2989 -1.043,6.6322 -0.5,10c13.431,-14.3989 29.597,-18.8989 48.5,-13.5c6.141,3.4715 9.974,8.6382 11.5,15.5c0.667,6.667 0.667,13.333 0,20c-3.923,23.782 -8.423,47.449 -13.5,71c-8.36,0.331 -16.693,-0.002 -25,-1c4.986,-23.764 9.653,-47.597 14,-71.5c-1.352,-11.326 -7.685,-15.66 -19,-13c-9.389,4.056 -16.556,10.556 -21.5,19.5c-4.362,21.974 -8.528,43.974 -12.5,66c-8.333,0 -16.667,0 -25,0c6.896,-35.812 13.896,-71.479 21,-107z" fill="#fdfefe"/>
   </g>
   <g stroke="null" transform="matrix(1.020344157101695,0,0,1.5328604683492846,-4517.687849899379,-7764.210416435801) " id="svg_20">
    <path stroke="null" id="svg_21" d="m5117.212579,5153.437633c25.543,-3.3358 41.376,7.3309 47.5,32c2.161,27.541 -7.005,50.374 -27.5,68.5c-13.26,9.187 -27.927,12.521 -44,10c-16.286,-4.702 -25.452,-15.536 -27.5,-32.5c-2.719,-32.398 9.781,-56.898 37.5,-73.5c4.684,-1.8298 9.351,-3.3298 14,-4.5z" fill="#fdfefe"/>
   </g>
   <g stroke="null" transform="matrix(1.020344157101695,0,0,1.5328604683492846,-4517.687849899379,-7764.210416435801) " id="svg_22">
    <path stroke="null" id="svg_23" d="m4739.212579,5155.437633c7.482,-0.992 15.148,-1.3254 23,-1c0.284,1.9147 -0.049,3.5813 -1,5c0,-1.3333 0,-2.6667 0,-4c-7.333,0 -14.667,0 -22,0z" fill="#94bbf1"/>
   </g>
   <g stroke="null" transform="matrix(1.020344157101695,0,0,1.5328604683492846,-4517.687849899379,-7764.210416435801) " id="svg_24">
    <path stroke="null" id="svg_25" d="m4998.212579,5154.437633c6.667,0 13.333,0 20,0c0.237,1.291 -0.096,2.291 -1,3c-6.101,-1.6489 -12.435,-2.6489 -19,-3z" fill="#92b9f0"/>
   </g>
   <g stroke="null" transform="matrix(1.020344157101695,0,0,1.5328604683492846,-4517.687849899379,-7764.210416435801) " id="svg_26">
    <path stroke="null" id="svg_27" d="m5210.212579,5155.437633c-8.667,0 -17.333,0 -26,0c0,2 0,4 0,6c-0.968,-2.1074 -1.302,-4.4407 -1,-7c9.182,-0.3266 18.182,0.0067 27,1z" fill="#94bbf1"/>
   </g>
   <g stroke="null" transform="matrix(1.020344157101695,0,0,1.5328604683492846,-4517.687849899379,-7764.210416435801) " id="svg_28">
    <path stroke="null" id="svg_29" d="m5295.212579,5155.437633c8.842,-1.3218 17.842,-1.3218 27,0c-0.124,0.6067 -0.457,0.94 -1,1c-8.484,-0.993 -17.151,-1.3264 -26,-1z" fill="#91b9f0"/>
   </g>
   <g stroke="null" transform="matrix(1.020344157101695,0,0,1.5328604683492846,-4517.687849899379,-7764.210416435801) " id="svg_30">
    <path stroke="null" id="svg_31" d="m4679.212579,5155.437633c11.667,0 23.333,0 35,0c-7.182,35.578 -13.849,71.244 -20,107c-8.333,0 -16.667,0 -25,0c5.76,-28.985 11.426,-57.985 17,-87c-3.667,0 -7.333,0 -11,0c1.018,-6.737 2.351,-13.4032 4,-20z" fill="#fdfdfe"/>
   </g>
   <g stroke="null" transform="matrix(1.020344157101695,0,0,1.5328604683492846,-4517.687849899379,-7764.210416435801) " id="svg_32">
    <path stroke="null" id="svg_33" d="m5210.212579,5155.437633c0.749,23.654 1.249,47.321 1.5,71c9.519,-23.699 19.019,-47.365 28.5,-71c8.333,0 16.667,0 25,0c0,11.3333 0,22.667 0,34c-0.332,12.684 0.001,25.351 1,38c0.607,-0.124 0.94,-0.457 1,-1c8.175,-24.206 17.509,-47.872 28,-71c8.849,-0.3264 17.516,0.007 26,1c-16.486,34.974 -32.986,69.974 -49.5,105c-8.081,0.982 -16.248,1.316 -24.5,1c-0.048,-14.675 -0.381,-29.341 -1,-44c0.331,-8.36 -0.002,-16.693 -1,-25c-0.607,0.124 -0.94,0.457 -1,1c-8.547,22.634 -17.88,44.967 -28,67c-7.972,0.998 -15.972,1.331 -24,1c-2.226,-33.703 -4.893,-67.369 -8,-101c0,-2 0,-4 0,-6c8.667,0 17.333,0 26,0z" fill="#fdfefe"/>
   </g>
   <g stroke="null" transform="matrix(1.020344157101695,0,0,1.5328604683492846,-4517.687849899379,-7764.210416435801) " id="svg_34">
    <path stroke="null" id="svg_35" d="m4953.212579,5174.437633c5.333,0 10.667,0 16,0c0.237,1.291 -0.096,2.291 -1,3c-4.751,-1.641 -9.751,-2.641 -15,-3z" fill="#b6d1f5"/>
   </g>
   <g stroke="null" transform="matrix(1.020344157101695,0,0,1.5328604683492846,-4517.687849899379,-7764.210416435801) " id="svg_36">
    <path stroke="null" id="svg_37" d="m5115.212579,5175.437633c13.506,-2.513 21.672,2.82 24.5,16c1.547,15.607 -2.453,29.607 -12,42c-7.553,8.407 -16.72,10.907 -27.5,7.5c-5.649,-4.462 -8.815,-10.296 -9.5,-17.5c-1.564,-16.644 3.603,-30.81 15.5,-42.5c3.064,-1.859 6.064,-3.692 9,-5.5z" fill="#6ea3ec"/>
   </g>
   <g stroke="null" transform="matrix(1.020344157101695,0,0,1.5328604683492846,-4517.687849899379,-7764.210416435801) " id="svg_38">
    <path stroke="null" id="svg_39" d="m4887.212579,5176.437633c12.37,-1.069 21.203,3.931 26.5,15c-1.136,10.356 -2.802,20.689 -5,31c-8.032,14.266 -20.199,20.433 -36.5,18.5c-5.338,-2.007 -8.504,-5.841 -9.5,-11.5c-3.394,-16.755 0.272,-31.755 11,-45c4.183,-3.336 8.683,-6.003 13.5,-8z" fill="#6ea3ec"/>
   </g>
   <g stroke="null" transform="matrix(1.020344157101695,0,0,1.5328604683492846,-4517.687849899379,-7764.210416435801) " id="svg_40">
    <path stroke="null" id="svg_41" d="m5244.212579,5194.437633c0.06,-0.543 0.393,-0.876 1,-1c0.998,8.307 1.331,16.64 1,25c-0.667,-8 -1.333,-16 -2,-24z" fill="#c7dbf7"/>
   </g>
   <g stroke="null" transform="matrix(1.020344157101695,0,0,1.5328604683492846,-4517.687849899379,-7764.210416435801) " id="svg_46">
    <path stroke="null" id="svg_47" d="m5265.212579,5189.437633c0.667,12.333 1.333,24.667 2,37c-0.06,0.543 -0.393,0.876 -1,1c-0.999,-12.649 -1.332,-25.316 -1,-38z" fill="#d6e5f9"/>
   </g>
  </g>
 </g>
</svg>